<svg width="179" height="215" viewBox="0 0 179 215" fill="none" xmlns="http://www.w3.org/2000/svg">
<path d="M82.9517 0.27137C79.4682 0.625114 74.2211 1.54879 72.5229 2.11871C72.2616 2.19732 71.5214 2.4135 70.8682 2.61002C65.251 4.18223 58.3711 7.52316 53.3417 11.1196C50.8162 12.9276 45.961 17.428 44.0668 19.7077C42.238 21.8892 40.3874 24.4047 40.3874 24.6798C40.3874 24.7781 40.2349 24.9746 40.0608 25.1122C39.8866 25.2498 39.7342 25.5249 39.7342 25.7214C39.7342 25.9376 39.6471 26.0948 39.5165 26.0948C39.4076 26.0948 39.2334 26.3307 39.1681 26.6254C39.081 26.9202 38.8851 27.2936 38.7109 27.4312C38.3843 27.7456 38.3408 28.2566 38.6456 28.2566C38.7762 28.2566 38.8633 28.1387 38.8633 28.0011C38.8633 27.8439 39.0593 27.5295 39.2987 27.274C39.5382 27.0185 39.7342 26.704 39.7342 26.5468C39.7342 26.4093 39.8213 26.2913 39.9301 26.2913C40.039 26.2913 40.2132 26.0948 40.3003 25.8393C40.3874 25.6035 40.518 25.3677 40.5833 25.3087C40.6704 25.2498 40.9752 24.8567 41.2582 24.4244C41.5413 23.992 41.8679 23.54 41.9549 23.4417C42.0638 23.3238 42.6516 22.6163 43.2613 21.8695C49.0526 14.775 57.1736 9.03641 66.2961 5.57756C71.2601 3.71056 74.613 2.84586 80.252 2.02045C83.0824 1.60774 91.9 1.60774 94.9264 2.02045C99.0413 2.59037 103.113 3.45509 105.921 4.37875C109.013 5.40069 113.411 7.24802 115.24 8.28961C115.74 8.56474 116.198 8.80058 116.263 8.80058C116.459 8.80058 119.725 10.8641 121.728 12.2791C128.608 17.0743 134.943 24.5226 138.253 31.7154C138.688 32.6784 139.145 33.6414 139.254 33.8576C139.864 35.1153 141.061 39.0852 141.823 42.4064C141.976 42.996 142.237 45.1578 142.433 47.2017C142.738 50.3854 142.76 51.3483 142.52 54.0801C142.063 59.5238 140.909 64.3583 139.015 68.7409C138.754 69.3304 138.449 70.0772 138.318 70.4113C138.035 71.0599 136.228 74.3222 135.488 75.521C130.807 82.93 123.448 89.5136 115.066 93.7782C113.324 94.6626 109.274 96.4509 108.534 96.6671C108.229 96.7457 107.445 97.0012 106.792 97.237C106.139 97.4729 105.312 97.748 104.941 97.8266C104.593 97.9249 103.613 98.1804 102.764 98.3965C100.587 98.9665 98.4317 99.3988 96.6681 99.5954C95.8408 99.6936 94.4691 99.8705 93.62 99.9688C91.334 100.283 85.0636 100.224 82.0808 99.8901C65.1204 97.9249 51.3822 90.1621 41.6501 76.9949C39.1899 73.654 36.5555 68.4264 35.0967 64.0046C34.3129 61.548 33.2026 57.362 33.2026 56.7724C33.2026 56.5759 33.0066 55.8095 32.7454 55.0627C31.439 51.2108 31.6785 58.5412 33.0502 64.2208C33.5727 66.3825 34.7484 69.8807 35.3798 71.1974C35.4886 71.4136 35.7934 72.0818 36.0547 72.6714C36.9474 74.5973 39.1028 78.233 40.518 80.1393C45.765 87.2732 53.4288 93.4834 61.6804 97.3746C66.3396 99.556 71.848 101.305 76.9644 102.229C81.1664 102.995 83.0824 103.152 88.5254 103.152C94.0119 103.152 95.0352 103.054 99.7162 102.229C102.721 101.679 106.204 100.755 108.49 99.8705C108.882 99.7133 109.318 99.5954 109.448 99.5954C109.884 99.5954 116.655 96.4706 118.636 95.3504C128.259 89.946 136.685 81.063 140.865 71.9639C141.301 71.0009 141.758 70.0379 141.867 69.8217C142.193 69.1536 143.304 65.9502 143.761 64.4173C145.067 59.9365 145.438 57.1655 145.438 51.8397C145.438 47.5358 145.263 45.7474 144.523 42.0134C142.281 30.8114 135.793 20.5135 125.995 12.6525C124.536 11.493 120.378 8.68266 119.05 7.97517C118.397 7.62142 117.591 7.16942 117.264 6.99255C114.717 5.49895 108.599 3.14064 104.941 2.21697C96.9076 0.192764 90.0712 -0.416466 82.9517 0.27137Z" fill="#FFB703"/>
<path d="M83.6049 4.00541C80.8398 4.16264 75.2226 5.24352 72.3923 6.14754C67.1017 7.85732 63.8141 9.33125 59.5468 11.8861C50.8597 17.094 44.1539 24.562 39.9519 33.7594C38.7544 36.3732 37.6441 40.1268 36.7732 44.47C36.2289 47.2607 36.2289 55.1806 36.7732 58.1285C37.9924 64.6925 39.6471 68.8588 43.5225 75.3245C44.6982 77.2701 48.0947 81.3185 50.5114 83.6572C53.0587 86.1138 59.1113 90.5552 61.0708 91.4003C61.245 91.4789 61.7022 91.7147 62.0505 91.9309C62.8997 92.4222 67.9943 94.7019 69.5619 95.2718C71.1513 95.8614 72.9801 96.4313 73.9163 96.6475C74.33 96.7458 75.1138 96.9227 75.6581 97.0406C81.014 98.2787 82.8646 98.4556 89.8317 98.3769C93.8377 98.3376 95.9496 98.2394 96.1456 98.1018C96.3198 97.9839 97.1906 97.8267 98.0833 97.7677C98.976 97.7284 99.738 97.5712 99.7815 97.4533C99.8251 97.3354 100.261 97.2371 100.761 97.2174C101.262 97.2174 101.872 97.1388 102.111 97.0406C102.525 96.903 102.525 96.8834 102.155 96.7458C101.676 96.5689 100.021 96.7458 99.8468 97.0013C99.7815 97.0995 98.9542 97.2371 97.9962 97.2961C97.06 97.355 96.1891 97.4926 96.0585 97.6105C95.6666 97.9642 84.4975 97.8856 82.1026 97.5122C78.336 96.9227 75.6581 96.392 73.8075 95.8221C73.4591 95.7239 72.8713 95.547 72.5011 95.4684C71.3472 95.1736 69.8885 94.6626 69.6925 94.4661C69.5619 94.3678 69.3442 94.2892 69.1918 94.2892C68.8652 94.2892 64.8156 92.5008 63.7923 91.9113C63.444 91.7147 62.9867 91.4789 62.8126 91.4199C61.9852 91.0858 57.609 88.3541 56.564 87.5091C49.7276 82.0457 45.8957 77.7025 42.5863 71.6298C41.1929 69.075 39.6036 65.1052 38.7762 62.1573C36.4466 53.7657 37.0998 43.2515 40.4744 35.2333C42.521 30.3988 45.3078 25.9966 48.9873 21.8499C54.2344 15.9345 61.9199 10.7659 69.5619 8.01453C70.2151 7.7787 71.0859 7.46426 71.4778 7.30704C71.8697 7.14982 72.327 7.03191 72.5011 7.03191C72.6753 7.03191 73.1325 6.91399 73.5244 6.75677C74.8525 6.2458 78.6191 5.47935 82.2986 4.96838C84.8894 4.61464 95.2312 4.53603 95.9279 4.87012C96.1456 4.98804 97.1471 5.12561 98.1268 5.20422C99.1284 5.26318 99.9992 5.42039 100.086 5.51866C100.152 5.63657 100.783 5.75449 101.48 5.81345C102.176 5.87241 102.873 6.02962 103.047 6.16719C103.2 6.32441 103.722 6.44233 104.201 6.44233C104.658 6.44233 105.05 6.52094 105.05 6.63885C105.05 6.87469 106.466 7.11051 106.814 6.91399C107.162 6.73711 106.531 6.48164 105.66 6.46198C105.355 6.44233 105.05 6.34406 105.007 6.22615C104.963 6.12788 104.484 5.97066 103.962 5.91171C103.417 5.85275 102.917 5.71519 102.851 5.59727C102.764 5.49901 102.176 5.36143 101.545 5.30248C100.892 5.24352 100.304 5.12561 100.239 5.02734C100.173 4.92908 99.3896 4.77186 98.497 4.6736C97.6043 4.59499 96.4939 4.41811 96.015 4.3002C95.1223 4.08402 85.9998 3.86784 83.6049 4.00541Z" fill="#FFB703"/>
<path d="M107.01 7.20876C107.01 7.42493 107.554 7.62146 108.12 7.62146C108.621 7.62146 108.665 7.32667 108.186 7.1498C107.685 6.97293 107.01 7.01223 107.01 7.20876Z" fill="#FFB703"/>
<path d="M108.752 7.818C108.752 8.05383 109.797 8.30931 110.014 8.13244C110.189 7.95557 109.622 7.62147 109.143 7.62147C108.926 7.62147 108.752 7.70008 108.752 7.818Z" fill="#FFB703"/>
<path d="M110.276 8.38793C110.276 8.64342 111.081 8.8596 111.408 8.68272C111.582 8.58446 111.538 8.4862 111.234 8.38793C110.646 8.17176 110.276 8.17176 110.276 8.38793Z" fill="#FFB703"/>
<path d="M111.691 8.99717C111.538 9.21335 112.518 9.40987 112.736 9.21335C112.845 9.11509 112.671 8.99717 112.344 8.95787C112.039 8.89891 111.734 8.91856 111.691 8.99717Z" fill="#FFB703"/>
<path d="M112.997 9.58675C112.932 9.66536 113.128 9.78327 113.433 9.82258C113.737 9.88153 113.977 9.86188 113.977 9.78327C113.977 9.56709 113.128 9.39022 112.997 9.58675Z" fill="#FFB703"/>
<path d="M114.478 10.314C114.674 10.3531 114.978 10.3531 115.131 10.314C115.261 10.2553 115.109 10.2162 114.739 10.2162C114.391 10.2162 114.26 10.2553 114.478 10.314Z" fill="#FFB703"/>
<path d="M115.675 10.9036C115.828 10.9623 116.023 10.9427 116.089 10.884C116.176 10.8253 116.045 10.7667 115.806 10.7862C115.566 10.7862 115.501 10.8449 115.675 10.9036Z" fill="#FFB703"/>
<path d="M116.764 11.4932C116.916 11.5519 117.112 11.5323 117.177 11.4736C117.264 11.415 117.134 11.3563 116.894 11.3758C116.655 11.3758 116.59 11.4345 116.764 11.4932Z" fill="#FFB703"/>
<path d="M118.331 12.6132C118.331 12.6525 118.527 12.7311 118.767 12.79C119.006 12.849 119.202 12.8097 119.202 12.7114C119.202 12.6132 119.006 12.5346 118.767 12.5346C118.527 12.5346 118.331 12.5739 118.331 12.6132Z" fill="#FFB703"/>
<path d="M119.376 13.0456C119.311 13.1046 119.703 13.5173 120.247 13.9693C125.799 18.5483 129.958 23.5204 133.049 29.3376C137.948 38.535 139.385 49.4028 137.077 59.6418C136.838 60.703 136.337 62.629 135.945 63.9261C135.118 66.8346 134.769 68.5051 134.965 68.682C135.292 68.9964 135.901 68.3282 136.816 66.6578C138.035 64.4763 138.013 64.5156 139.232 60.9782C140.016 58.6788 140.735 53.5102 140.757 50.1693C140.757 44.6862 139.472 38.5743 137.208 33.3663C134.573 27.3134 131.003 22.4199 125.843 17.7426C123.448 15.6004 120.748 13.5173 120.334 13.5173C120.225 13.5173 120.073 13.3797 119.986 13.2225C119.855 12.9277 119.594 12.8491 119.376 13.0456Z" fill="#FFB703"/>
<path d="M85.5644 27.5885C81.776 27.9422 76.0282 29.7306 74.0687 31.1456C73.2196 31.7744 73.7204 31.912 75.375 31.519C78.5102 30.7722 85.1289 30.0254 88.6124 30.0254C92.3355 30.0254 97.8438 30.6543 101.98 31.519C102.808 31.6958 103.439 31.7548 103.548 31.6565C104.223 31.0473 98.9324 28.9052 94.5998 28.0208C92.7927 27.6474 87.5456 27.4116 85.5644 27.5885Z" fill="#FFB703"/>
<path d="M37.9054 28.7872C37.8183 28.9641 37.8618 29.1999 37.9924 29.3179C38.1448 29.4554 38.2102 29.3572 38.2102 28.9838C38.2102 28.3745 38.1013 28.3156 37.9054 28.7872Z" fill="#FFB703"/>
<path d="M37.2739 30.0254C37.2086 30.2416 37.2521 30.4774 37.361 30.5363C37.4699 30.5953 37.557 30.4184 37.557 30.1433C37.557 29.5341 37.4263 29.4751 37.2739 30.0254Z" fill="#FFB703"/>
<path d="M36.7296 31.4993C36.7296 31.8138 36.7732 31.9317 36.8386 31.7351C36.8822 31.5583 36.8822 31.2831 36.8386 31.1456C36.7732 31.0277 36.7296 31.1652 36.7296 31.4993Z" fill="#FFB703"/>
<path d="M36.0765 32.9733C36.0765 33.2484 36.1201 33.3467 36.1855 33.2091C36.229 33.0912 36.229 32.8554 36.1855 32.7178C36.1201 32.5999 36.0765 32.6981 36.0765 32.9733Z" fill="#FFB703"/>
<path d="M35.4233 34.5455C35.4233 34.8206 35.4669 34.9189 35.5323 34.7813C35.5759 34.6634 35.5759 34.4275 35.5323 34.29C35.4669 34.1721 35.4233 34.2703 35.4233 34.5455Z" fill="#FFB703"/>
<path d="M81.5365 34.4669C77.9006 34.9975 74.9831 35.5871 72.8277 36.2552C70.5634 36.9627 68.7346 37.572 67.7113 37.9847C64.8591 39.1442 64.5108 39.3407 63.9883 40.0875C63.0521 41.4042 62.5295 42.5441 62.6819 42.8978C62.7908 43.1926 62.9214 43.1729 63.8576 42.6816C70.9989 38.869 79.9907 36.7072 88.5907 36.7072C97.06 36.7072 104.68 38.4367 112.409 42.1117C115.044 43.3891 115.24 43.2909 114.129 41.3059C113.193 39.6158 112.758 39.2621 110.711 38.417C105.66 36.3535 101.676 35.2923 96.015 34.5258C92.5967 34.0738 84.5411 34.0345 81.5365 34.4669Z" fill="#FFB703"/>
<path d="M82.4074 41.0308C77.0515 41.758 73.5244 42.7406 68.4733 44.922C65.2946 46.2977 60.3305 49.3832 60.1128 50.1103C59.8951 50.8571 59.9604 52.7831 60.2217 52.9403C60.3523 52.9992 60.766 52.8027 61.1361 52.4883C63.0303 50.8964 67.1016 48.4595 69.8885 47.241C75.3315 44.8631 79.9689 43.7429 85.7385 43.4088C93.6636 42.9371 101.001 44.2735 107.99 47.4769C110.384 48.5774 113.846 50.6409 115.784 52.1345L117.221 53.2351L117.373 52.7241C117.439 52.449 117.46 51.7218 117.417 51.1126C117.308 50.0907 117.221 49.9334 116.35 49.2259C114.173 47.4769 109.906 45.2168 106.357 43.9001C105.573 43.6053 104.746 43.2909 104.506 43.2123C98.8235 41.0308 89.3091 40.0875 82.4074 41.0308Z" fill="#FFB703"/>
<path d="M84.3669 47.4179C76.0064 48.3809 68.7345 51.427 62.8996 56.4384L60.5918 58.4037L60.6789 59.3273C60.7442 59.8383 60.9619 60.5065 61.1796 60.8013L61.5498 61.3319L63.4004 59.6221C68.7999 54.65 74.3517 51.9183 82.2985 50.3265C84.8023 49.8352 92.4008 49.8352 95.0352 50.3461C99.4549 51.1912 102.438 52.1738 106.139 54.0408C108.49 55.22 111.756 57.539 114.02 59.6614L115.915 61.4302L116.35 60.4868C117.134 58.8557 117.047 58.6198 114.913 56.7529C113.084 55.161 109.644 52.783 107.772 51.8397C102.786 49.3242 98.301 48.0075 92.7491 47.4179C89.3962 47.0641 87.4585 47.0838 84.3669 47.4179Z" fill="#FFB703"/>
<path d="M84.6935 54.0211C80.0125 54.5518 75.2226 56.2419 71.0859 58.7967C69.3006 59.8973 65.251 63.4347 64.2495 64.7514C63.531 65.7144 63.5746 66.5005 64.4237 67.4242C65.0333 68.0924 65.3599 67.9941 66.0784 66.9329C66.8839 65.7341 70.9553 62.0787 72.7188 60.9781C75.9629 58.9736 79.1416 57.7355 83.2783 56.9101C85.9998 56.3598 91.2251 56.3205 93.8377 56.8315C100.914 58.2268 106.727 61.4891 110.711 66.2843C111.8 67.6011 112.17 67.9548 112.496 67.9548C112.562 67.9548 112.888 67.5618 113.215 67.0704C113.629 66.4219 113.759 66.0092 113.65 65.6162C113.585 65.3214 112.714 64.2601 111.734 63.2578C104.789 56.2419 94.9263 52.8616 84.6935 54.0211Z" fill="#FFB703"/>
<path d="M85.0201 60.6047C78.6626 61.6463 72.8495 64.9676 69.5184 69.4287C68.0596 71.4136 68.0379 71.5709 69.1482 72.5142L70.0844 73.3199L70.5199 72.8286C70.7811 72.5535 71.3254 71.8067 71.7391 71.1975C72.7842 69.6449 75.5492 67.149 77.5305 65.9895C82.8864 62.8255 90.0276 62.1573 96.0149 64.2601C98.7365 65.2231 100.805 66.4612 103.004 68.4264C104.767 70.038 106.357 71.846 106.357 72.2587C106.357 72.3373 106.574 72.5928 106.857 72.8286L107.336 73.2413L108.164 72.5535C109.383 71.5119 109.296 71.0992 107.315 68.7409C104.898 65.852 101.175 63.2775 97.539 61.9608C94.382 60.8209 93.4241 60.6637 89.3745 60.5851C87.2844 60.5458 85.3249 60.5458 85.0201 60.6047Z" fill="#FFB703"/>
<path d="M86.3264 67.0901C83.779 67.5028 81.0575 68.5051 79.4246 69.6253C76.8773 71.3547 74.4606 74.0471 74.3082 75.3245C74.2429 75.8158 74.3735 75.9534 75.1791 76.3661C75.6798 76.6216 76.2459 76.7984 76.3983 76.7395C76.5725 76.6805 76.9208 76.2089 77.2039 75.6782C78.0094 74.1846 80.9051 71.7281 82.8428 70.883C84.4975 70.1559 87.219 69.527 88.7213 69.527C90.4848 69.527 92.9451 70.1362 94.9916 71.0599C96.9511 71.9639 99.4331 74.3026 100.435 76.1499C100.827 76.9164 101.11 76.936 102.242 76.3661C103.548 75.7175 103.396 75.0297 101.436 72.6714C99.4331 70.2738 96.581 68.4854 93.2063 67.5224C91.9 67.149 87.5674 66.8936 86.3264 67.0901Z" fill="#FFB703"/>
<path d="M87.2408 73.654C84.9765 73.9488 82.1897 75.6586 81.2317 77.3487C80.6439 78.3903 80.9705 78.6851 82.9517 78.8816C84.1056 79.0192 84.1492 78.9995 85.2378 78.1152C86.4788 77.0932 87.9158 76.6805 89.418 76.8967C90.5284 77.0539 92.0089 77.7811 92.5967 78.4689C92.9016 78.803 93.2499 78.9602 93.7289 78.9602C94.7304 78.9602 96.298 78.5672 96.4069 78.292C96.6899 77.6435 94.9699 75.6782 93.3805 74.7939C91.5517 73.7719 89.3963 73.3789 87.2408 73.654Z" fill="#FFB703"/>
<path d="M132.57 87.0964C126.235 92.8939 119.507 97.2371 112.779 99.8705C110.951 100.598 110.537 100.755 109.622 101.069C107.424 101.836 106.945 101.973 103.635 102.818C102.634 103.074 101.197 103.349 98.0833 103.919C96.2109 104.273 90.3978 104.705 87.5456 104.705C81.7325 104.705 75.6363 103.899 69.1265 102.248C67.5371 101.836 63.6181 100.755 63.0738 100.558C62.7908 100.46 62.4207 100.381 62.2465 100.381C60.9402 100.381 65.0769 102.563 68.1903 103.506C68.9087 103.722 69.7579 103.998 70.0409 104.096C71.5649 104.607 74.8307 105.314 77.8353 105.766C84.1927 106.71 90.8114 106.71 97.2124 105.766C100.805 105.236 104.854 104.253 108.098 103.133C108.752 102.897 109.492 102.642 109.731 102.563C113.498 101.325 119.551 98.2001 123.665 95.3897C126.822 93.228 133.202 87.568 133.637 86.5461C133.855 86.0548 133.528 86.212 132.57 87.0964Z" fill="#FFB703"/>
<path d="M111.756 93.4443C111.909 93.503 112.104 93.4834 112.17 93.4247C112.257 93.3661 112.126 93.3074 111.887 93.3269C111.647 93.3269 111.582 93.3856 111.756 93.4443Z" fill="#FFB703"/>
<path d="M110.45 94.0338C110.58 94.073 110.842 94.073 110.994 94.0338C111.125 93.9751 111.016 93.936 110.711 93.936C110.406 93.936 110.297 93.9751 110.45 94.0338Z" fill="#FFB703"/>
<path d="M108.817 94.6234C109.013 94.6626 109.318 94.6626 109.47 94.6234C109.601 94.5647 109.448 94.5256 109.078 94.5256C108.73 94.5256 108.599 94.5647 108.817 94.6234Z" fill="#FFB703"/>
<path d="M107.075 95.213C107.271 95.2521 107.619 95.2521 107.837 95.213C108.033 95.1543 107.859 95.1152 107.445 95.1152C107.032 95.1152 106.857 95.1543 107.075 95.213Z" fill="#FFB703"/>
<path d="M105.268 95.6452C104.528 95.8221 105.159 96.0579 106.008 95.9204C106.444 95.8418 106.531 95.7631 106.313 95.6452C105.987 95.4487 106.03 95.4487 105.268 95.6452Z" fill="#FFB703"/>
<path d="M103.047 96.1955C102.416 96.333 102.59 96.6475 103.287 96.6475C104.092 96.6475 104.637 96.451 104.484 96.2348C104.375 96.0579 103.701 96.0382 103.047 96.1955Z" fill="#FFB703"/>
<path d="M89.1567 158.985C86.8924 159.162 86.3699 159.261 83.2347 159.988C78.532 161.088 72.6535 164.331 69.9538 167.338C69.2789 168.065 68.4951 168.93 68.1902 169.244C67.8854 169.558 67.167 170.62 66.6009 171.602C66.0348 172.585 65.5123 173.469 65.4252 173.587C65.1639 173.902 64.0971 176.437 63.7705 177.498C63.5963 178.048 63.2698 179.463 63.0303 180.662C62.4207 183.728 62.4207 190.174 63.0303 193.142C63.7705 196.738 64.1406 197.74 66.0348 201.16C68.7781 206.112 72.7188 209.63 78.1618 212.028C79.6206 212.676 81.3841 213.325 82.0808 213.502C82.7993 213.678 83.9314 213.954 84.5846 214.111C85.8692 214.425 90.5937 214.936 92.7491 214.995C94.7739 215.054 99.7379 214.563 101.567 214.13C102.459 213.914 103.7 213.619 104.288 213.482C104.898 213.344 106.509 212.755 107.924 212.146C115.697 208.805 120.966 202.653 122.969 194.615C124.362 189.054 124.036 181.625 122.207 176.535C121.162 173.646 118.941 170.128 116.677 167.75C114.935 165.942 111.604 163.388 110.014 162.641C106.139 160.813 104.68 160.341 100.152 159.359C98.9759 159.103 94.1425 158.73 92.5314 158.769C91.8129 158.789 90.2889 158.887 89.1567 158.985ZM96.9076 171.897C98.4752 172.349 100.26 173.273 101.436 174.255C102.459 175.12 104.027 177.243 104.506 178.422C106.596 183.531 106.553 191.058 104.397 195.618C102.982 198.566 100.304 200.826 96.9947 201.867C95.1876 202.437 91.0727 202.398 89.1567 201.808C87.3714 201.238 86.9142 201.022 85.4119 199.941C82.1026 197.563 80.2302 192.906 80.2302 186.951C80.2302 178.913 83.4089 173.686 89.3745 171.917C91.1162 171.406 95.1223 171.406 96.9076 171.897Z" fill="#FFB703"/>
<path d="M156.215 158.986C154.321 159.143 152.927 159.398 149.4 160.243C147.266 160.754 142.803 162.896 140.604 164.488C138.841 165.746 136.424 168.085 135.052 169.795C134.421 170.6 132.265 174.393 131.786 175.553C130.371 178.894 129.871 181.92 129.871 186.991C129.871 192.277 130.437 195.52 131.939 198.92C132.636 200.492 134.943 204.285 135.597 204.953C135.858 205.208 136.642 206.034 137.36 206.761C139.668 209.178 142.542 210.967 146.744 212.598C147.353 212.814 148.028 213.089 148.268 213.187C148.682 213.345 149.357 213.521 152.731 214.249C155.975 214.956 162.507 215.192 166.556 214.76C172.5 214.111 176.768 212.028 178.466 208.962C179.337 207.41 179.119 204.167 177.987 202.103C177.312 200.905 175.57 199.116 175.2 199.293C175.113 199.332 174.699 199.509 174.286 199.686C173.872 199.843 172.74 200.315 171.782 200.728C168.734 201.985 165.729 202.477 162.093 202.261C154.756 201.848 149.596 197.898 148.028 191.491C147.484 189.251 147.375 185.222 147.832 183.06C148.573 179.405 150.423 176.162 152.731 174.374C153.929 173.47 156.628 172.114 157.282 172.114C157.477 172.114 158.022 171.976 158.501 171.819C159.089 171.622 160.33 171.544 162.398 171.524C166.556 171.524 167.645 171.799 172.457 174.039C173.436 174.492 174.394 174.865 174.612 174.865C175.2 174.865 177.442 172.664 178.117 171.386C178.683 170.364 178.749 170.05 178.749 168.281C178.749 166.532 178.683 166.198 178.139 165.196C176.876 162.857 173.153 160.538 169.278 159.634C165.925 158.868 160.678 158.612 156.215 158.986Z" fill="#FFB703"/>
<path d="M5.57383 160.145C3.39662 160.676 1.85081 161.383 0.827519 162.326L0.000181245 163.093V185.733C0.000181245 210.377 -0.0433629 209.63 1.21942 211.438C2.11207 212.715 3.13536 213.266 5.4432 213.678C6.94547 213.954 7.92521 213.993 9.68875 213.895C13.2594 213.698 15.8502 213.364 16.2857 213.03C16.634 212.755 16.6558 211.988 16.6558 202.103C16.6558 196.247 16.5469 189.349 16.3945 186.754C16.1768 182.608 16.2639 180.23 16.5905 181.153C16.6558 181.311 16.83 181.704 17.0042 182.038C17.1566 182.352 17.7009 183.512 18.2016 184.593C19.7257 187.875 23.1439 194.321 30.0456 206.918C32.6365 211.654 34.0081 212.774 38.2101 213.698C40.518 214.189 46.1569 214.189 48.443 213.678C50.4678 213.246 52.6886 212.303 53.124 211.674C53.4288 211.261 53.4506 208.706 53.3853 187.875C53.3417 166.846 53.2982 164.449 52.9716 163.623C52.3184 161.973 51.7524 161.324 50.3154 160.636C48.6607 159.83 47.2238 159.673 42.8911 159.791C38.8851 159.889 37.4481 160.106 36.9691 160.676C36.599 161.088 36.599 170.915 36.9256 183.079C37.0562 188.052 37.078 191.884 36.9691 191.982C36.795 192.139 36.4684 191.569 35.5104 189.506C35.358 189.172 35.0314 188.523 34.7702 188.032C34.5307 187.541 33.8557 186.224 33.2897 185.084C32.7236 183.944 31.5043 181.645 30.5899 179.974C29.6537 178.304 27.4547 174.275 25.6912 171.032C23.9277 167.79 22.0553 164.567 21.5327 163.859C20.1829 161.973 18.2669 160.734 16.155 160.322C15.6543 160.224 14.8487 160.066 14.3697 159.948C13.8908 159.83 12.0837 159.752 10.3419 159.752C7.90344 159.752 6.81484 159.85 5.57383 160.145Z" fill="#FFB703"/>
</svg>
